<?xml version="1.0" standalone="no"?>
<!DOCTYPE svg PUBLIC "-//W3C//DTD SVG 20010904//EN"
 "http://www.w3.org/TR/2001/REC-SVG-20010904/DTD/svg10.dtd">
<svg version="1.0" xmlns="http://www.w3.org/2000/svg"
 width="1143.000000pt" height="1143.000000pt" viewBox="0 0 1143.000000 1143.000000"
 preserveAspectRatio="xMidYMid meet">
<metadata>
Created by potrace 1.14, written by Peter Selinger 2001-2017
</metadata>
<g transform="translate(0.000000,1143.000000) scale(0.100000,-0.100000)"
fill="#000000" stroke="none">
<path d="M5538 10725 c-2 -2 -57 -6 -123 -9 -66 -4 -136 -9 -155 -11 -19 -3
-62 -7 -95 -10 -33 -2 -69 -7 -81 -9 -12 -2 -45 -7 -75 -11 -30 -3 -61 -8 -69
-10 -8 -2 -31 -7 -50 -10 -19 -3 -57 -10 -85 -15 -27 -6 -61 -13 -75 -15 -14
-3 -38 -8 -55 -10 -16 -3 -38 -8 -47 -11 -9 -3 -25 -6 -35 -8 -54 -11 -275
-74 -393 -113 -216 -71 -401 -148 -615 -254 -196 -97 -228 -114 -350 -187
-153 -91 -463 -307 -542 -376 -7 -6 -18 -15 -25 -21 -7 -5 -67 -57 -133 -115
-305 -267 -580 -579 -803 -909 -106 -157 -232 -362 -232 -379 0 -6 -4 -12 -8
-14 -12 -5 -165 -320 -222 -458 -179 -432 -299 -900 -344 -1345 -29 -282 -29
-810 -1 -1010 3 -16 7 -52 10 -80 10 -82 24 -176 35 -235 6 -30 13 -71 16 -90
11 -66 56 -262 86 -365 171 -609 434 -1139 809 -1635 48 -63 96 -124 106 -135
16 -19 84 -98 144 -169 47 -56 295 -302 382 -379 454 -402 963 -706 1542 -920
153 -56 222 -78 435 -136 131 -36 386 -88 517 -106 23 -3 57 -8 75 -11 332
-47 881 -51 1178 -7 25 3 48 6 51 5 6 -1 96 12 159 23 14 3 45 8 70 11 25 3
48 8 51 10 3 2 21 6 40 9 50 8 118 24 269 62 602 152 1181 428 1676 799 107
80 97 72 209 165 194 160 457 422 601 597 10 13 29 36 42 50 124 145 319 431
465 682 55 95 180 352 239 490 58 138 168 442 189 525 4 16 19 75 34 130 14
55 33 132 41 170 9 39 17 79 20 90 29 138 70 421 81 570 16 205 9 730 -12 895
-2 19 -7 55 -10 80 -3 25 -8 63 -11 85 -41 325 -194 890 -309 1140 -7 17 -22
53 -33 80 -11 28 -39 89 -61 137 -23 48 -42 91 -42 95 0 5 -4 13 -9 18 -4 6
-31 55 -60 110 -29 55 -61 112 -72 127 -10 14 -18 29 -18 32 0 31 -291 455
-421 612 -19 23 -43 53 -55 68 -71 91 -334 364 -449 466 -105 93 -124 109
-226 191 -519 418 -1144 731 -1793 899 -83 22 -162 41 -176 44 -142 27 -250
47 -275 50 -16 2 -41 7 -55 10 -14 3 -52 8 -85 12 -33 3 -69 8 -80 9 -11 2
-56 6 -100 10 -44 4 -96 9 -115 11 -43 5 -488 12 -492 9z"/>
</g>
</svg>
