<svg width="74" height="80" viewBox="0 0 74 80" fill="none" xmlns="http://www.w3.org/2000/svg">
<path d="M32 75C32 77.7614 34.2386 80 37 80C39.7614 80 42 77.7614 42 75H32ZM40.5355 1.46447C38.5829 -0.488155 35.4171 -0.488155 33.4645 1.46447L1.64466 33.2843C-0.307961 35.2369 -0.307961 38.4027 1.64466 40.3553C3.59728 42.308 6.76311 42.308 8.71573 40.3553L37 12.0711L65.2843 40.3553C67.2369 42.308 70.4027 42.308 72.3553 40.3553C74.308 38.4027 74.308 35.2369 72.3553 33.2843L40.5355 1.46447ZM42 75L42 5H32L32 75H42Z" fill="white"/>
</svg>
