<svg width="113" height="112" viewBox="0 0 113 112" fill="none" xmlns="http://www.w3.org/2000/svg">
<ellipse cx="56.5" cy="56" rx="56.5" ry="56" fill="#C0FDFF" fill-opacity="0.46"/>
<path d="M52 91C52 93.7614 54.2386 96 57 96C59.7614 96 62 93.7614 62 91H52ZM60.5355 17.4645C58.5829 15.5118 55.4171 15.5118 53.4645 17.4645L21.6447 49.2843C19.692 51.2369 19.692 54.4027 21.6447 56.3553C23.5973 58.308 26.7631 58.308 28.7157 56.3553L57 28.0711L85.2843 56.3553C87.2369 58.308 90.4027 58.308 92.3553 56.3553C94.308 54.4027 94.308 51.2369 92.3553 49.2843L60.5355 17.4645ZM62 91L62 21H52L52 91H62Z" fill="white"/>
</svg>
